<svg id="圖層_1" data-name="圖層 1" xmlns="http://www.w3.org/2000/svg" viewBox="0 0 280 60"><defs><style>.cls-1{fill:#bd0000;}</style></defs><path d="M11.02588,21.58789a8.73915,8.73915,0,0,0,2.208,2.32813q1.29565.936,3.648,2.376,2.49536,1.48829,3.88818,2.4961A9.168,9.168,0,0,1,23.146,31.356a6.83628,6.83628,0,0,1,.98388,3.72021,7.65782,7.65782,0,0,1-4.53613,7.12793,12.19051,12.19051,0,0,1-5.352,1.08008A13.876,13.876,0,0,1,7.47363,41.604a.68946.68946,0,0,1-.312-.33593,2.65378,2.65378,0,0,1-.11963-.57618l-.624-6.52783c-.03223-.12744.03955-.208.21582-.24023.17529-.03125.27978.0166.312.144A13.761,13.761,0,0,0,9.80176,40.02a6.86668,6.86668,0,0,0,5.54394,2.49609,6.29814,6.29814,0,0,0,4.05616-1.32031,5.04852,5.04852,0,0,0,1.65576-4.19971,7.084,7.084,0,0,0-.96-3.74414A9.218,9.218,0,0,0,17.77,30.63623a41.58246,41.58246,0,0,0-3.72022-2.42432,41.6933,41.6933,0,0,1-3.624-2.3999,8.80167,8.80167,0,0,1-2.23193-2.54394,6.91457,6.91457,0,0,1-.91211-3.6001,6.66669,6.66669,0,0,1,1.272-4.104,7.70869,7.70869,0,0,1,3.312-2.54394A11.30438,11.30438,0,0,1,16.21,12.18018,14.57529,14.57529,0,0,1,21.82568,13.332q.72.241.72022.81592l.33594,5.52c0,.12842-.08008.19189-.24024.19189a.25583.25583,0,0,1-.2876-.19189,9.84224,9.84224,0,0,0-2.064-4.63184,5.80342,5.80342,0,0,0-4.84815-2.13623A4.95908,4.95908,0,0,0,11.43359,14.46a5.77586,5.77586,0,0,0-1.31982,3.86426A5.81635,5.81635,0,0,0,11.02588,21.58789Z"/><path d="M62.48145,42.41992q0,.28785-.14356.28809-1.10523,0-1.77637-.04785l-2.59179-.04834-2.59229.04834q-.67236.04833-1.77588.04785c-.0957,0-.144-.09619-.144-.28809s.04834-.28808.144-.28808a5.21921,5.21921,0,0,0,1.91992-.26368,1.526,1.526,0,0,0,.86426-.96,6.82678,6.82678,0,0,0,.23975-2.08838V31.188a7.09747,7.09747,0,0,0-1.00781-4.2002,3.62053,3.62053,0,0,0-3.12012-1.36767,6.05907,6.05907,0,0,0-2.90381.792A9.72514,9.72514,0,0,0,46.88184,28.644a4.43429,4.43429,0,0,1,.04785.76807v9.40771a6.76242,6.76242,0,0,0,.24023,2.11231,1.51744,1.51744,0,0,0,.86377.936,5.21925,5.21925,0,0,0,1.91992.26368q.14428,0,.14405.28808,0,.28785-.144.28809-1.10448,0-1.77588-.04785l-2.59228-.04834-2.63965.04834q-.62475.04833-1.728.04785-.14428,0-.144-.28809,0-.28784.144-.28808a5.22285,5.22285,0,0,0,1.91993-.26368,1.44453,1.44453,0,0,0,.83984-.936,7.49253,7.49253,0,0,0,.21631-2.11231V31.188a7.09359,7.09359,0,0,0-1.0083-4.2002,3.56689,3.56689,0,0,0-3.07178-1.36767,6.07536,6.07536,0,0,0-2.87988.76806,9.22546,9.22546,0,0,0-2.64014,2.15967v10.272a7.49644,7.49644,0,0,0,.21582,2.11231,1.44278,1.44278,0,0,0,.84033.936,5.21574,5.21574,0,0,0,1.91992.26368c.09571,0,.14405.09619.14405.28808s-.04834.28809-.144.28809q-1.10521,0-1.728-.04785l-2.59229-.04834-2.63965.04834q-.62475.04833-1.728.04785-.1443,0-.144-.28809,0-.28784.14405-.28808a5.22279,5.22279,0,0,0,1.91992-.26368,1.44451,1.44451,0,0,0,.83984-.936,7.49253,7.49253,0,0,0,.21631-2.11231v-9.5039a5.30546,5.30546,0,0,0-.38428-2.352,1.35049,1.35049,0,0,0-1.2959-.71973,8.40953,8.40953,0,0,0-2.59228.71973h-.0957a.26839.26839,0,0,1-.26416-.21582.22908.22908,0,0,1,.12011-.312l5.56787-2.64014a.67951.67951,0,0,1,.28809-.04785q.43214,0,.91211,1.104a7.1682,7.1682,0,0,1,.48,2.832v.04785a12.43929,12.43929,0,0,1,3.456-3.07177,7.31231,7.31231,0,0,1,3.6001-.96,5.51231,5.51231,0,0,1,3.50391,1.05566,4.80087,4.80087,0,0,1,1.67969,3.168,13.61449,13.61449,0,0,1,3.55224-3.1919,7.25845,7.25845,0,0,1,3.6958-1.03173,5.09469,5.09469,0,0,1,3.91211,1.46386,6.15105,6.15105,0,0,1,1.36817,4.34375v9.312a7.49606,7.49606,0,0,0,.21582,2.11231,1.44328,1.44328,0,0,0,.83984.936,5.22045,5.22045,0,0,0,1.92041.26368Q62.48144,42.13184,62.48145,42.41992Z"/><path d="M65.79346,42.41992c0-.19189.03125-.28808.0957-.28808a5.423,5.423,0,0,0,1.94385-.26368,1.51736,1.51736,0,0,0,.88818-.96,6.82392,6.82392,0,0,0,.24024-2.08838V29.84424a6.30063,6.30063,0,0,0-.36036-2.4961,1.25152,1.25152,0,0,0-1.22363-.76806,4.96147,4.96147,0,0,0-2.16015.67187h-.04786c-.12841,0-.22461-.07959-.28808-.23974-.06446-.16016-.04834-.27149.04785-.33643l6.24023-2.87988.1919-.04785a.42013.42013,0,0,1,.23974.12011.3427.3427,0,0,1,.144.26368q0,.33691-.04785,1.92041-.04834,1.58349-.04786,3.74365v9.02392a6.76541,6.76541,0,0,0,.23975,2.11231,1.51814,1.51814,0,0,0,.86426.936,5.21748,5.21748,0,0,0,1.91992.26368c.0957,0,.144.09619.144.28808s-.04834.28809-.144.28809q-1.10523,0-1.77637-.04785l-2.59179-.04834-2.5918.04834q-.67309.04833-1.82422.04785C65.82471,42.708,65.79346,42.61182,65.79346,42.41992ZM68.36133,17.604a1.95979,1.95979,0,0,1-.55225-1.48779,1.96241,1.96241,0,0,1,.55225-1.48828,2.16686,2.16686,0,0,1,1.56006-.52783,2.01958,2.01958,0,1,1,0,4.03174A2.1626,2.1626,0,0,1,68.36133,17.604Z"/><path d="M78.22461,42.41992c0-.19189.04834-.28808.144-.28808a5.21921,5.21921,0,0,0,1.91992-.26368,1.526,1.526,0,0,0,.86426-.96,6.82678,6.82678,0,0,0,.23975-2.08838V14.00391a6.727,6.727,0,0,0-.33594-2.4961,1.20656,1.20656,0,0,0-1.19971-.76758,6.15136,6.15136,0,0,0-2.208.67188h-.0962c-.09619,0-.168-.07959-.21582-.24023q-.07251-.2395.07178-.28809l6.144-2.92774A.53849.53849,0,0,1,83.793,7.9082a.52783.52783,0,0,1,.26367.11963.33366.33366,0,0,1,.168.26416V38.81982a7.25355,7.25355,0,0,0,.21631,2.064,1.52139,1.52139,0,0,0,.83984.96045,4.82847,4.82847,0,0,0,1.91992.2876q.1443,0,.144.28808,0,.28785-.144.28809-1.05615,0-1.728-.04785l-2.688-.04834-2.5918.04834q-.67309.04833-1.82422.04785C78.273,42.708,78.22461,42.61182,78.22461,42.41992Z"/><path d="M106.30469,40.02a.33292.33292,0,0,1,.26367.168.25587.25587,0,0,1,.02393.312,10.61345,10.61345,0,0,1-7.00782,2.78418,9.011,9.011,0,0,1-4.896-1.29639A8.27464,8.27464,0,0,1,91.59229,38.604a10.08934,10.08934,0,0,1-1.03174-4.53613,10.21544,10.21544,0,0,1,1.36816-5.23193,10.19039,10.19039,0,0,1,8.95166-5.08789,5.88923,5.88923,0,0,1,4.03223,1.272,4.4054,4.4054,0,0,1,1.43994,3.48,2.17077,2.17077,0,0,1-.12012.83984.45367.45367,0,0,1-.45605.26416l-11.80762.0962a13.65084,13.65084,0,0,0-.24023,2.4956,10.81287,10.81287,0,0,0,2.01611,6.792A6.636,6.636,0,0,0,101.3125,41.604a8.27869,8.27869,0,0,0,4.94385-1.584ZM95.96045,25.83594a6.02049,6.02049,0,0,0-1.84815,3.19189l8.92823-.19189a4.23585,4.23585,0,0,0-1.03223-3.04785A3.63867,3.63867,0,0,0,99.24854,24.708,4.8861,4.8861,0,0,0,95.96045,25.83594Z"/><path class="cls-1" d="M135.104,38.48389q.14356.19261-.52783.86425-.67309.67238-.86426.52784l-4.896-4.896-4.94385,4.896q-.09667.19262-.792-.50391-.69654-.69507-.6001-.792l4.99219-4.99219-4.896-4.94385q-.19263-.09594.50391-.792.69507-.69507.792-.55225l4.94385,4.94434,4.896-4.896q.19118-.14428.86426.52784.67164.6731.52783.86425l-4.896,4.84766Z"/><path d="M160.543,42.75586q-.67309-.04834-1.7041-.0957-1.03272-.04761-2.27979-.04834l-3.26416.04834q-.86425.04833-2.3999.04785c-.06445,0-.09619-.09619-.09619-.28809s.03174-.28808.09619-.28808a10.60067,10.60067,0,0,0,2.66406-.23975,1.68832,1.68832,0,0,0,1.15186-.936,5.51707,5.51707,0,0,0,.312-2.13623V16.59619a5.72846,5.72846,0,0,0-.28809-2.1123,1.69254,1.69254,0,0,0-1.12793-.936,9.72792,9.72792,0,0,0-2.66406-.26367c-.06445,0-.09619-.09619-.09619-.28809s.03174-.28808.09619-.28808l2.3999.04785q2.01636.09667,3.21631.09619,1.823,0,3.59961-.144,2.11158-.096,2.92822-.09619a19.49979,19.49979,0,0,1,8.832,1.92041,14.8082,14.8082,0,0,1,5.97607,5.23193,13.43754,13.43754,0,0,1,2.13574,7.43994,15.47241,15.47241,0,0,1-2.18408,8.23194,14.81385,14.81385,0,0,1-5.92773,5.52,17.44474,17.44474,0,0,1-8.16016,1.94385Q162.36646,42.8999,160.543,42.75586Zm9.55176-2.18408a11.16091,11.16091,0,0,0,4.63232-4.752,16.02826,16.02826,0,0,0,1.65576-7.56,17.77867,17.77867,0,0,0-1.584-7.584,12.84811,12.84811,0,0,0-4.51221-5.376A11.84909,11.84909,0,0,0,163.519,13.332a16.28171,16.28171,0,0,0-3.19238.23975,2.63652,2.63652,0,0,0-1.65576.96045,3.63811,3.63811,0,0,0-.52783,2.15966V38.292a5.12048,5.12048,0,0,0,.40771,2.25586,2.58781,2.58781,0,0,0,1.53613,1.22412,9.76084,9.76084,0,0,0,3.1919.40821A14.10454,14.10454,0,0,0,170.09473,40.57178Z"/><path d="M199.80713,40.02a.33292.33292,0,0,1,.26367.168.25587.25587,0,0,1,.02393.312,10.61345,10.61345,0,0,1-7.00782,2.78418,9.01107,9.01107,0,0,1-4.896-1.29639,8.27464,8.27464,0,0,1-3.09619-3.38379,10.08934,10.08934,0,0,1-1.03174-4.53613,10.21544,10.21544,0,0,1,1.36816-5.23193,10.19039,10.19039,0,0,1,8.95166-5.08789A5.88923,5.88923,0,0,1,198.415,25.02,4.4054,4.4054,0,0,1,199.855,28.5a2.17077,2.17077,0,0,1-.12012.83984.45366.45366,0,0,1-.45605.26416l-11.80762.0962a13.65084,13.65084,0,0,0-.24023,2.4956,10.81287,10.81287,0,0,0,2.01611,6.792,6.636,6.636,0,0,0,5.56787,2.61621,8.27869,8.27869,0,0,0,4.94385-1.584ZM189.46289,25.83594a6.02042,6.02042,0,0,0-1.84814,3.19189l8.92822-.19189a4.23585,4.23585,0,0,0-1.03223-3.04785A3.63866,3.63866,0,0,0,192.751,24.708,4.8861,4.8861,0,0,0,189.46289,25.83594Z"/><path d="M207.82227,29.772a15.83994,15.83994,0,0,0,3.26416,2.08789,28.20751,28.20751,0,0,1,2.61621,1.48828A5.80147,5.80147,0,0,1,215.31055,34.98a4.31418,4.31418,0,0,1,.67187,2.44824,5.396,5.396,0,0,1-1.82373,4.12793,7.01552,7.01552,0,0,1-4.94433,1.67969,7.86667,7.86667,0,0,1-4.60791-1.43994.64481.64481,0,0,1-.28809-.57569l-.0957-3.74414c0-.09619.0874-.15136.26367-.168.17578-.01563.27978.02392.312.12011a8.7598,8.7598,0,0,0,2.376,3.64795,5.05925,5.05925,0,0,0,3.38427,1.248,3.54361,3.54361,0,0,0,2.32764-.69629,2.55487,2.55487,0,0,0,.84033-2.08789,4.14087,4.14087,0,0,0-.6001-2.28027,4.83086,4.83086,0,0,0-1.46386-1.4878q-.86425-.55151-2.352-1.31982a21.82485,21.82485,0,0,1-2.52-1.39209,5.50918,5.50918,0,0,1-1.584-1.63184,4.52467,4.52467,0,0,1-.64795-2.49609,4.54171,4.54171,0,0,1,1.94385-3.96,7.7594,7.7594,0,0,1,4.584-1.36817,8.37066,8.37066,0,0,1,3.5039.72022.66681.66681,0,0,1,.36035.21582.60348.60348,0,0,1,.07178.312q0,.96095-.04785,1.48779l-.04834,2.01612c0,.06445-.0957.09619-.2876.09619-.19238,0-.28808-.03174-.28808-.09619a2.85979,2.85979,0,0,0-.76807-1.896,5.57032,5.57032,0,0,0-1.91992-1.416,5.49633,5.49633,0,0,0-2.3042-.52784,2.7408,2.7408,0,0,0-1.94385.64795,2.52974,2.52974,0,0,0-.69629,1.94385A3.386,3.386,0,0,0,207.82227,29.772Z"/><path d="M220.59033,42.41992c0-.19189.03125-.28808.09571-.28808a5.42967,5.42967,0,0,0,1.94433-.26368,1.51669,1.51669,0,0,0,.8877-.96,6.80888,6.80888,0,0,0,.24023-2.08838V29.84424a6.30085,6.30085,0,0,0-.36035-2.4961,1.25153,1.25153,0,0,0-1.22363-.76806,4.96336,4.96336,0,0,0-2.16016.67187h-.04785c-.12891,0-.22461-.07959-.28809-.23974-.06445-.16016-.04785-.27149.04785-.33643l6.24024-2.87988.1914-.04785a.41845.41845,0,0,1,.24024.12011.34484.34484,0,0,1,.14453.26368q0,.33691-.04883,1.92041-.04833,1.58349-.04785,3.74365v9.02392a6.777,6.777,0,0,0,.24024,2.11231,1.52078,1.52078,0,0,0,.86425.936,5.21574,5.21574,0,0,0,1.91992.26368q.14356,0,.14356.28808,0,.28785-.14356.28809-1.10448,0-1.77636-.04785l-2.5918-.04834-2.5918.04834q-.67236.04833-1.82421.04785C220.62158,42.708,220.59033,42.61182,220.59033,42.41992ZM223.15771,17.604a1.95957,1.95957,0,0,1-.55175-1.48779,1.96219,1.96219,0,0,1,.55175-1.48828,2.17052,2.17052,0,0,1,1.56055-.52783,2.01961,2.01961,0,1,1,0,4.03174A2.16625,2.16625,0,0,1,223.15771,17.604Z"/><path d="M242.86182,41.31592a42.0984,42.0984,0,0,1,4.55957.88818,6.68273,6.68273,0,0,1,2.87988,1.584,4.105,4.105,0,0,1,1.20019,3.144,7.25,7.25,0,0,1-1.63183,4.34375,12.25969,12.25969,0,0,1-4.3916,3.57617,12.98825,12.98825,0,0,1-5.92871,1.39209,8.67531,8.67531,0,0,1-5.4961-1.63232,5.07446,5.07446,0,0,1-2.08789-4.17578q0-3.79249,5.47266-7.43995-3.26514-.95946-3.26465-3.26416a4.36883,4.36883,0,0,1,.93652-2.61572,9.89935,9.89935,0,0,1,2.51953-2.32812,5.83225,5.83225,0,0,1-2.87988-2.08789,5.37167,5.37167,0,0,1-1.00781-3.19239,4.88172,4.88172,0,0,1,2.1123-4.07959,8.62936,8.62936,0,0,1,5.32715-1.584,7.28262,7.28262,0,0,1,4.89649,1.48779,9.84627,9.84627,0,0,1,5.13574-1.53613c.09668,0,.168.11279.21582.33594a3.38481,3.38481,0,0,1,.07226.72021,4.74693,4.74693,0,0,1-.14355,1.15186q-.145.5764-.33594.48-.145-.04687-1.03222-.38379a6.0599,6.0599,0,0,0-2.13575-.33594,8.6461,8.6461,0,0,0-1.20019.0957,5.03517,5.03517,0,0,1,1.24805,3.40821,5.30068,5.30068,0,0,1-.91211,3,6.44637,6.44637,0,0,1-2.54395,2.18408,8.37355,8.37355,0,0,1-3.792.81592,9.34273,9.34273,0,0,1-2.44824-.28809,4.54543,4.54543,0,0,0-1.2959,1.36816,3.22815,3.22815,0,0,0-.48047,1.70411,2.1138,2.1138,0,0,0,1.36816,2.08789,17.67211,17.67211,0,0,0,4.1045,1.03174Zm2.66406,12.624a6.37878,6.37878,0,0,0,2.5918-2.27978,5.63741,5.63741,0,0,0,.88769-3.04834,3.55146,3.55146,0,0,0-1.20019-2.87989,6.7214,6.7214,0,0,0-2.80762-1.39209q-1.60841-.38451-4.53613-.76806-1.48828-.19189-2.06348-.33594a9.59094,9.59094,0,0,0-2.66406,2.40039,6.07892,6.07892,0,0,0,.86328,7.55957,7.04733,7.04733,0,0,0,4.87207,1.6084A8.87534,8.87534,0,0,0,245.52588,53.93994Zm-7.87207-28.416A4.267,4.267,0,0,0,236.76514,28.5,6.4573,6.4573,0,0,0,238.23,32.93994a4.452,4.452,0,0,0,3.43164,1.65625,2.93618,2.93618,0,0,0,2.35156-1.08008,5.00674,5.00674,0,0,0,.91211-3.28808,5.77688,5.77688,0,0,0-1.46386-4.08008,4.583,4.583,0,0,0-3.4795-1.584A3.02406,3.02406,0,0,0,237.65381,25.52393Z"/><path d="M275.93408,42.41992c0,.1919-.04785.28809-.14453.28809q-1.10449,0-1.72754-.04785l-2.5918-.04834-2.64062.04834q-.624.04833-1.72754.04785c-.09668,0-.14453-.09619-.14453-.28809s.04785-.28808.14453-.28808a5.22275,5.22275,0,0,0,1.91992-.26368,1.44455,1.44455,0,0,0,.83985-.936,7.515,7.515,0,0,0,.21582-2.11231V31.044a6.61814,6.61814,0,0,0-1.08008-4.17579,4.02485,4.02485,0,0,0-3.33594-1.34423,6.42445,6.42445,0,0,0-3,.792A9.85133,9.85133,0,0,0,259.90186,28.5V38.81982a7.51457,7.51457,0,0,0,.21582,2.11231,1.44451,1.44451,0,0,0,.83984.936,5.22279,5.22279,0,0,0,1.91992.26368c.09668,0,.14453.09619.14453.28808s-.04785.28809-.14453.28809q-1.10449,0-1.72754-.04785l-2.59179-.04834-2.64063.04834q-.624.04833-1.72754.04785c-.0957,0-.14453-.09619-.14453-.28809s.04883-.28808.14453-.28808a5.21921,5.21921,0,0,0,1.91992-.26368,1.44455,1.44455,0,0,0,.83985-.936,7.478,7.478,0,0,0,.21582-2.11231v-9.5039a5.30673,5.30673,0,0,0-.38379-2.352,1.351,1.351,0,0,0-1.2959-.71973,8.40413,8.40413,0,0,0-2.5918.71973h-.09668a.26826.26826,0,0,1-.26367-.21582.22945.22945,0,0,1,.12012-.312l5.56836-2.64014a.6764.6764,0,0,1,.28808-.04785q.43067,0,.91114,1.104a7.15017,7.15017,0,0,1,.48047,2.832,13.94558,13.94558,0,0,1,3.624-3.12012,7.51824,7.51824,0,0,1,3.71973-1.00781,5.48331,5.48331,0,0,1,4.12793,1.4878,6.04255,6.04255,0,0,1,1.44042,4.36816v9.40771a7.51449,7.51449,0,0,0,.21583,2.11231,1.44206,1.44206,0,0,0,.83984.936,5.22275,5.22275,0,0,0,1.91992.26368C275.88623,42.13184,275.93408,42.228,275.93408,42.41992Z"/></svg>