<svg xmlns="http://www.w3.org/2000/svg" viewBox="0 0 240 48">
	<defs><style>.cls-1{fill:#fff;}</style></defs>
	<path class="cls-1" d="M6.91336,14.88654a7.59366,7.59366,0,0,0,1.91858,2.023q1.12581.81333,3.16977,2.06453,2.16827,1.2932,3.37851,2.1689a7.96616,7.96616,0,0,1,2.06453,2.23127,5.94019,5.94019,0,0,1,.85492,3.23257,6.65405,6.65405,0,0,1-3.94153,6.19359,10.59268,10.59268,0,0,1-4.6505.9385,12.05713,12.05713,0,0,1-5.8809-1.45994.599.599,0,0,1-.27111-.2919,2.3061,2.3061,0,0,1-.10395-.50065l-.54222-5.67215c-.028-.11074.03436-.18074.18753-.20875.15231-.02715.24311.01443.27111.12516a11.95707,11.95707,0,0,0,2.4816,5.17194,5.9666,5.9666,0,0,0,4.81723,2.1689,5.47257,5.47257,0,0,0,3.52447-1.14724A4.38677,4.38677,0,0,0,15.63012,28.275a6.15533,6.15533,0,0,0-.83413-3.25335,8.00949,8.00949,0,0,0-2.02252-2.27285A36.13336,36.13336,0,0,0,9.5409,20.64227a36.22866,36.22866,0,0,1-3.149-2.08532,7.648,7.648,0,0,1-1.93937-2.21048A6.00816,6.00816,0,0,1,3.66,13.21828,5.79284,5.79284,0,0,1,4.76524,9.65223,6.6983,6.6983,0,0,1,7.64311,7.44175,9.82258,9.82258,0,0,1,11.4179,6.712a12.66482,12.66482,0,0,1,4.87961,1.00087q.62559.20937.62581.709l.2919,4.79645c0,.11159-.06958.16674-.20874.16674a.22228.22228,0,0,1-.2499-.16674,8.55217,8.55217,0,0,0-1.79342-4.02469,5.04271,5.04271,0,0,0-4.21264-1.85621A4.309,4.309,0,0,0,7.26763,8.69294a5.01877,5.01877,0,0,0-1.14682,3.35773A5.054,5.054,0,0,0,6.91336,14.88654Z"/>
	<path class="cls-1" d="M51.62406,32.98788q0,.25011-.12474.25032-.96034,0-1.54352-.04158l-2.25206-.042-2.25248.042q-.58423.042-1.5431.04158c-.08315,0-.12516-.08358-.12516-.25032s.042-.25033.12516-.25033a4.53527,4.53527,0,0,0,1.66826-.2291,1.326,1.326,0,0,0,.751-.83413,5.932,5.932,0,0,0,.20832-1.81463V23.22824A6.16706,6.16706,0,0,0,45.66,19.57861a3.14594,3.14594,0,0,0-2.71113-1.1884,5.26483,5.26483,0,0,0-2.52317.68818,8.45031,8.45031,0,0,0-2.35643,1.93937,3.85329,3.85329,0,0,1,.04158.66739v8.17454a5.87586,5.87586,0,0,0,.20874,1.83542,1.31855,1.31855,0,0,0,.75055.81334,4.53524,4.53524,0,0,0,1.66825.2291q.12539,0,.12516.25033,0,.25011-.12516.25032-.95972,0-1.54309-.04158l-2.25249-.042-2.29364.042q-.54285.042-1.50151.04158-.12537,0-.12516-.25032,0-.25011.12516-.25033a4.53828,4.53828,0,0,0,1.66825-.2291,1.2552,1.2552,0,0,0,.72976-.81334,6.51041,6.51041,0,0,0,.188-1.83542V23.22824a6.16373,6.16373,0,0,0-.87614-3.64963,3.09933,3.09933,0,0,0-2.66912-1.1884,5.27907,5.27907,0,0,0-2.50239.66739,8.016,8.016,0,0,0-2.29406,1.87658v8.92551a6.51384,6.51384,0,0,0,.18753,1.83542,1.25367,1.25367,0,0,0,.73018.81334,4.53224,4.53224,0,0,0,1.66826.2291c.08316,0,.12516.08359.12516.25033s-.042.25032-.12516.25032q-.96036,0-1.50152-.04158l-2.25248-.042-2.29364.042q-.54287.042-1.50152.04158-.12537,0-.12516-.25032,0-.25011.12516-.25033a4.53834,4.53834,0,0,0,1.66826-.2291,1.25519,1.25519,0,0,0,.72975-.81334,6.51,6.51,0,0,0,.188-1.83542V21.60156a4.61005,4.61005,0,0,0-.33391-2.04374,1.17347,1.17347,0,0,0-1.126-.62538,7.30724,7.30724,0,0,0-2.25248.62538h-.08316a.2332.2332,0,0,1-.22953-.18753.199.199,0,0,1,.10437-.27111l4.838-2.29406a.59033.59033,0,0,1,.25033-.04158q.37548,0,.79255.95929a6.22873,6.22873,0,0,1,.41706,2.4608v.04158a10.80862,10.80862,0,0,1,3.003-2.66912,6.35376,6.35376,0,0,1,3.12819-.83413,4.78979,4.78979,0,0,1,3.04461.91728A4.17159,4.17159,0,0,1,38.02727,20.392a11.82977,11.82977,0,0,1,3.08661-2.7735,6.307,6.307,0,0,1,3.21135-.89649,4.42683,4.42683,0,0,1,3.3993,1.272,5.34475,5.34475,0,0,1,1.18883,3.77436v8.09139a6.51384,6.51384,0,0,0,.18753,1.83542,1.25413,1.25413,0,0,0,.72975.81334,4.5363,4.5363,0,0,0,1.66868.2291Q51.62406,32.73755,51.62406,32.98788Z"/>
	<path class="cls-1" d="M54.50193,32.98788c0-.16674.02715-.25033.08316-.25033a4.71228,4.71228,0,0,0,1.689-.2291,1.31847,1.31847,0,0,0,.77176-.83413,5.92953,5.92953,0,0,0,.20875-1.81463V22.06063a5.47487,5.47487,0,0,0-.31312-2.1689,1.08747,1.08747,0,0,0-1.06324-.66739,4.31108,4.31108,0,0,0-1.877.58381H53.9597c-.11158,0-.19516-.06916-.25032-.20832-.056-.13917-.042-.2359.04158-.29233l5.42226-2.50238.16674-.04158a.36508.36508,0,0,1,.20832.10437.29779.29779,0,0,1,.12516.22911q0,.29275-.04158,1.66868-.042,1.37592-.04158,3.25293v7.84106a5.87847,5.87847,0,0,0,.20832,1.83542,1.31917,1.31917,0,0,0,.751.81334,4.53375,4.53375,0,0,0,1.66826.2291c.08315,0,.12516.08359.12516.25033s-.042.25032-.12516.25032q-.96036,0-1.54352-.04158l-2.25206-.042-2.25206.042q-.58487.042-1.5851.04158C54.52908,33.2382,54.50193,33.15462,54.50193,32.98788Zm2.23127-21.563a1.70294,1.70294,0,0,1-.47986-1.29277A1.70519,1.70519,0,0,1,56.7332,8.8389a1.88283,1.88283,0,0,1,1.35556-.45865,1.75057,1.75057,0,0,1,1.29278.45865,1.7509,1.7509,0,0,1,.45864,1.29319,1.59508,1.59508,0,0,1-1.75142,1.75142A1.87913,1.87913,0,0,1,56.7332,11.42486Z"/>
	<path class="cls-1" d="M65.30359,32.98788c0-.16674.042-.25033.12516-.25033a4.5353,4.5353,0,0,0,1.66826-.2291,1.326,1.326,0,0,0,.751-.83413,5.932,5.932,0,0,0,.20832-1.81463V8.29667a5.84533,5.84533,0,0,0-.2919-2.1689,1.04842,1.04842,0,0,0-1.04245-.667,5.345,5.345,0,0,0-1.91858.58381h-.08358c-.08359,0-.146-.06916-.18753-.20874q-.063-.20811.06236-.25033l5.33868-2.544A.46772.46772,0,0,1,70.142,3a.45857.45857,0,0,1,.22911.104.28991.28991,0,0,1,.14595.22953V29.85969a6.30265,6.30265,0,0,0,.188,1.79341,1.322,1.322,0,0,0,.72975.83456,4.19554,4.19554,0,0,0,1.66826.24989q.12537,0,.12516.25033,0,.25011-.12516.25032-.91772,0-1.50152-.04158l-2.33564-.042-2.25206.042q-.58486.042-1.5851.04158C65.34559,33.2382,65.30359,33.15462,65.30359,32.98788Z"/>
	<path class="cls-1" d="M89.7029,30.90256a.28928.28928,0,0,1,.2291.14595.22232.22232,0,0,1,.02079.27111,9.22222,9.22222,0,0,1-6.08921,2.41923,7.82993,7.82993,0,0,1-4.25423-1.12646A7.19007,7.19007,0,0,1,76.919,29.67216a8.76693,8.76693,0,0,1-.89649-3.94154,8.8764,8.8764,0,0,1,1.18882-4.54612,8.85462,8.85462,0,0,1,7.77827-4.421,5.11724,5.11724,0,0,1,3.50367,1.10524,3.82794,3.82794,0,0,1,1.25119,3.02382,1.88617,1.88617,0,0,1-.10437.72975.39419.39419,0,0,1-.39627.22954L78.984,21.93547a11.86111,11.86111,0,0,0-.20875,2.16848,9.39558,9.39558,0,0,0,1.75184,5.90169,5.76617,5.76617,0,0,0,4.838,2.27327,7.19347,7.19347,0,0,0,4.2958-1.37635ZM80.71459,18.57774a5.23125,5.23125,0,0,0-1.60588,2.7735l7.7579-.16674a3.68064,3.68064,0,0,0-.89693-2.64834,3.16175,3.16175,0,0,0-2.398-.9385A4.24567,4.24567,0,0,0,80.71459,18.57774Z"/>
	<path class="cls-1" d="M114.72716,29.56778q.12474.16738-.45864.751-.58487.58423-.751.45865l-4.25423-4.25423-4.2958,4.25423q-.084.16737-.68817-.43786-.60523-.604-.52144-.68817l4.33781-4.33781-4.25423-4.2958q-.16737-.08337.43786-.68818.60395-.604.68817-.47985l4.2958,4.29622,4.25423-4.25422q.1661-.12537.751.45864.58359.58486.45864.751l-4.25422,4.21222Z"/>
	<path class="cls-1" d="M136.83155,33.27978q-.58486-.042-1.48072-.08316-.89735-.04137-1.981-.042l-2.83629.042q-.751.042-2.08532.04158c-.056,0-.08358-.08358-.08358-.25032s.02757-.25033.08358-.25033a9.21086,9.21086,0,0,0,2.31485-.20832,1.467,1.467,0,0,0,1.00087-.81333,4.79394,4.79394,0,0,0,.27111-1.85621V10.54916a4.97778,4.97778,0,0,0-.25032-1.83543,1.47068,1.47068,0,0,0-.98008-.81333,8.45247,8.45247,0,0,0-2.31485-.22911c-.056,0-.08358-.08359-.08358-.25033s.02757-.25032.08358-.25032l2.08532.04158q1.752.084,2.79471.08358,1.584,0,3.12777-.12516,1.83479-.08337,2.54438-.08358a16.94375,16.94375,0,0,1,7.67432,1.66868,12.86706,12.86706,0,0,1,5.19272,4.54612,11.67611,11.67611,0,0,1,1.85579,6.46471,13.44426,13.44426,0,0,1-1.89779,7.15288,12.87212,12.87212,0,0,1-5.15072,4.79645,15.158,15.158,0,0,1-7.09051,1.689Q138.416,33.40494,136.83155,33.27978Zm8.2997-1.89779a9.69791,9.69791,0,0,0,4.02512-4.12906,13.92724,13.92724,0,0,0,1.43872-6.56908,15.44818,15.44818,0,0,0-1.37635-6.58986A11.164,11.164,0,0,0,145.298,9.4227a10.29581,10.29581,0,0,0-5.88047-1.70983,14.14752,14.14752,0,0,0-2.77392.20832,2.29084,2.29084,0,0,0-1.43872.83455,3.16122,3.16122,0,0,0-.45865,1.87657V29.401a4.44926,4.44926,0,0,0,.35427,1.96016,2.24864,2.24864,0,0,0,1.33478,1.06366,8.48118,8.48118,0,0,0,2.77349.3547A12.2556,12.2556,0,0,0,145.13125,31.382Z"/>
	<path class="cls-1" d="M170.94892,30.90256a.28928.28928,0,0,1,.2291.14595.22232.22232,0,0,1,.02079.27111,9.22223,9.22223,0,0,1-6.08922,2.41923,7.82991,7.82991,0,0,1-4.25422-1.12646,7.19007,7.19007,0,0,1-2.69034-2.94023,8.76693,8.76693,0,0,1-.89649-3.94154,8.8764,8.8764,0,0,1,1.18882-4.54612,8.85462,8.85462,0,0,1,7.77827-4.421,5.11724,5.11724,0,0,1,3.50367,1.10524,3.82794,3.82794,0,0,1,1.25119,3.02382,1.88617,1.88617,0,0,1-.10437.72975.39419.39419,0,0,1-.39627.22954L160.23,21.93547a11.86111,11.86111,0,0,0-.20875,2.16848,9.39558,9.39558,0,0,0,1.75184,5.90169,5.76617,5.76617,0,0,0,4.838,2.27327,7.19347,7.19347,0,0,0,4.2958-1.37635Zm-8.98831-12.32482a5.23125,5.23125,0,0,0-1.60588,2.7735l7.7579-.16674a3.68064,3.68064,0,0,0-.89693-2.64834,3.16175,3.16175,0,0,0-2.398-.9385A4.24567,4.24567,0,0,0,161.96061,18.57774Z"/>
	<path class="cls-1" d="M177.91342,21.99784a13.76385,13.76385,0,0,0,2.83629,1.81421,24.5036,24.5036,0,0,1,2.27327,1.29319,5.04094,5.04094,0,0,1,1.39715,1.41793,3.74867,3.74867,0,0,1,.5838,2.12733,4.68869,4.68869,0,0,1-1.58467,3.58683,6.09594,6.09594,0,0,1-4.29623,1.45951,6.8355,6.8355,0,0,1-4.0039-1.25119.56028.56028,0,0,1-.25032-.50022l-.08316-3.25335c0-.08359.076-.13153.22911-.146.15274-.01357.24311.02079.27111.10438a7.61172,7.61172,0,0,0,2.06453,3.16977,4.3961,4.3961,0,0,0,2.94066,1.08445,3.07909,3.07909,0,0,0,2.02253-.605,2.22,2.22,0,0,0,.73018-1.81421,3.59819,3.59819,0,0,0-.52143-1.98137,4.19763,4.19763,0,0,0-1.272-1.29277q-.751-.47922-2.04374-1.14682a18.9646,18.9646,0,0,1-2.18969-1.20961,4.78705,4.78705,0,0,1-1.37635-1.41794,3.93153,3.93153,0,0,1-.563-2.1689,3.94638,3.94638,0,0,1,1.68905-3.44088,6.74227,6.74227,0,0,1,3.98311-1.18883,7.27352,7.27352,0,0,1,3.04461.62581.57949.57949,0,0,1,.31311.18753.52446.52446,0,0,1,.06237.27112q0,.835-.04158,1.29277l-.042,1.75184c0,.056-.08316.08358-.2499.08358-.16716,0-.25032-.02758-.25032-.08358a2.48491,2.48491,0,0,0-.66739-1.64747,4.84019,4.84019,0,0,0-1.66826-1.2304,4.77587,4.77587,0,0,0-2.00216-.45865,2.38148,2.38148,0,0,0-1.689.563,2.1981,2.1981,0,0,0-.605,1.689A2.94215,2.94215,0,0,0,177.91342,21.99784Z"/>
	<path class="cls-1" d="M189.00783,32.98788c0-.16674.02715-.25033.08316-.25033a4.7181,4.7181,0,0,0,1.68947-.2291,1.31787,1.31787,0,0,0,.77133-.83413,5.916,5.916,0,0,0,.20875-1.81463V22.06063a5.47487,5.47487,0,0,0-.31312-2.1689,1.08747,1.08747,0,0,0-1.06324-.66739,4.31267,4.31267,0,0,0-1.877.58381h-.04158c-.112,0-.19516-.06916-.25032-.20832-.056-.13917-.04158-.2359.04158-.29233l5.42226-2.50238.16631-.04158a.36361.36361,0,0,1,.20875.10437.29964.29964,0,0,1,.12558.22911q0,.29275-.04243,1.66868-.042,1.37592-.04157,3.25293v7.84106a5.889,5.889,0,0,0,.20874,1.83542,1.32147,1.32147,0,0,0,.751.81334,4.5322,4.5322,0,0,0,1.66826.2291q.12473,0,.12473.25033,0,.25011-.12473.25032-.95971,0-1.54352-.04158l-2.25206-.042-2.25206.042q-.58423.042-1.5851.04158C189.035,33.2382,189.00783,33.15462,189.00783,32.98788Zm2.23085-21.563a1.70269,1.70269,0,0,1-.47944-1.29277,1.70494,1.70494,0,0,1,.47944-1.29319,1.886,1.886,0,0,1,1.356-.45865,1.7516,1.7516,0,0,1,1.2932.45865,1.75071,1.75071,0,0,1,.45822,1.29319,1.74837,1.74837,0,0,1-.45822,1.29277,1.74817,1.74817,0,0,1-1.2932.45865A1.88224,1.88224,0,0,1,191.23868,11.42486Z"/>
	<path class="cls-1" d="M208.35994,32.02859a36.58015,36.58015,0,0,1,3.96189.77176,5.80671,5.80671,0,0,1,2.50239,1.37635,3.56694,3.56694,0,0,1,1.04287,2.73192,6.29965,6.29965,0,0,1-1.41793,3.77436,10.6526,10.6526,0,0,1-3.816,3.10741A11.28582,11.28582,0,0,1,205.48165,45a7.53809,7.53809,0,0,1-4.77566-1.41836,4.40929,4.40929,0,0,1-1.81421-3.62841q0-3.29536,4.75529-6.46471-2.83713-.8337-2.83671-2.83629a3.79617,3.79617,0,0,1,.81376-2.27285,8.60182,8.60182,0,0,1,2.18927-2.023,5.06763,5.06763,0,0,1-2.50238-1.8142,4.66748,4.66748,0,0,1-.87571-2.77393,4.24183,4.24183,0,0,1,1.83542-3.54483,7.49817,7.49817,0,0,1,4.62886-1.37635,6.328,6.328,0,0,1,4.25464,1.29277,8.55559,8.55559,0,0,1,4.46255-1.33477c.084,0,.14595.098.18753.2919a2.94116,2.94116,0,0,1,.06279.62581,4.12439,4.12439,0,0,1-.12474,1.00086q-.126.50087-.2919.41707-.126-.04072-.89692-.33348a5.26564,5.26564,0,0,0-1.85579-.29191,7.51308,7.51308,0,0,0-1.04287.08316A4.37513,4.37513,0,0,1,212.73932,21.56a4.60584,4.60584,0,0,1-.79255,2.60676,5.60126,5.60126,0,0,1-2.21048,1.89779,7.27586,7.27586,0,0,1-3.29493.709,8.11823,8.11823,0,0,1-2.12732-.25033,3.94967,3.94967,0,0,0-1.126,1.18883,2.80488,2.80488,0,0,0-.41749,1.48072,1.83671,1.83671,0,0,0,1.18882,1.81421,15.35551,15.35551,0,0,0,3.56647.8965Zm2.31485,10.96925a5.54262,5.54262,0,0,0,2.25206-1.98095,4.89834,4.89834,0,0,0,.77134-2.64876,3.08591,3.08591,0,0,0-1.04287-2.50238,5.84018,5.84018,0,0,0-2.4396-1.20962q-1.39757-.33411-3.94153-.66738a18.16462,18.16462,0,0,1-1.793-.29191,8.33382,8.33382,0,0,0-2.31485,2.08575,5.28208,5.28208,0,0,0,.75012,6.56865,6.12354,6.12354,0,0,0,4.23343,1.39757A7.712,7.712,0,0,0,210.67479,42.99784ZM203.8346,18.30663a3.70773,3.70773,0,0,0-.77218,2.586,5.6109,5.6109,0,0,0,1.27283,3.85795,3.86846,3.86846,0,0,0,2.98182,1.43914,2.5513,2.5513,0,0,0,2.04331-.9385,4.35047,4.35047,0,0,0,.79255-2.85708,5.01959,5.01959,0,0,0-1.272-3.54525,3.98225,3.98225,0,0,0-3.0234-1.37636A2.6277,2.6277,0,0,0,203.8346,18.30663Z"/>
	<path class="cls-1" d="M237.09705,32.98788c0,.16674-.04158.25032-.12559.25032q-.95972,0-1.50109-.04158l-2.25206-.042-2.29449.042q-.54222.042-1.50109.04158c-.084,0-.12558-.08358-.12558-.25032s.04157-.25033.12558-.25033a4.53838,4.53838,0,0,0,1.66826-.2291,1.25519,1.25519,0,0,0,.72975-.81334,6.52971,6.52971,0,0,0,.18753-1.83542V23.10308a5.75057,5.75057,0,0,0-.9385-3.62842,3.49724,3.49724,0,0,0-2.89865-1.168,5.58223,5.58223,0,0,0-2.60676.68818,8.55977,8.55977,0,0,0-2.398,1.89779v8.96709a6.52971,6.52971,0,0,0,.18753,1.83542,1.25519,1.25519,0,0,0,.72975.81334,4.53838,4.53838,0,0,0,1.66826.2291c.084,0,.12559.08359.12559.25033s-.04158.25032-.12559.25032q-.95972,0-1.50109-.04158l-2.25206-.042-2.29449.042q-.54222.042-1.50109.04158c-.08316,0-.12559-.08358-.12559-.25032s.04243-.25033.12559-.25033a4.53521,4.53521,0,0,0,1.66825-.2291,1.2552,1.2552,0,0,0,.72976-.81334,6.49768,6.49768,0,0,0,.18753-1.83542V21.60156a4.61117,4.61117,0,0,0-.33348-2.04374,1.17388,1.17388,0,0,0-1.126-.62538,7.30257,7.30257,0,0,0-2.25206.62538h-.084a.2331.2331,0,0,1-.22911-.18753.19937.19937,0,0,1,.10437-.27111l4.83846-2.29406a.58762.58762,0,0,1,.25032-.04158q.37421,0,.7917.95929a6.21293,6.21293,0,0,1,.41749,2.4608,12.11763,12.11763,0,0,1,3.149-2.71113,6.53276,6.53276,0,0,1,3.23214-.8757,4.76455,4.76455,0,0,1,3.58683,1.29277,5.25049,5.25049,0,0,1,1.25162,3.79558v8.17454a6.52971,6.52971,0,0,0,.18753,1.83542,1.25307,1.25307,0,0,0,.72976.81334,4.53828,4.53828,0,0,0,1.66825.2291C237.05547,32.73755,237.09705,32.82114,237.09705,32.98788Z"/>
</svg>